<svg width="46" height="42" viewBox="0 0 46 42" fill="none" xmlns="http://www.w3.org/2000/svg">
<path d="M25.6385 10.5H21.1486V18.9H12.169V23.1H21.1486V31.5H25.6385V23.1H34.6182V18.9H25.6385V10.5ZM23.3936 0C11.0016 0 0.944336 9.408 0.944336 21C0.944336 32.592 11.0016 42 23.3936 42C35.7855 42 45.8428 32.592 45.8428 21C45.8428 9.408 35.7855 0 23.3936 0ZM23.3936 37.8C13.4935 37.8 5.43418 30.261 5.43418 21C5.43418 11.739 13.4935 4.2 23.3936 4.2C33.2937 4.2 41.353 11.739 41.353 21C41.353 30.261 33.2937 37.8 23.3936 37.8Z" fill="black"/>
</svg>
